<svg id="Capa_1" enable-background="new 0 0 512 512" height="512" viewBox="0 0 512 512" width="512" xmlns="http://www.w3.org/2000/svg"><g><g><g><g><path d="m275.557 117.65h-30.125v-38.48c0-15.729-12.703-28.526-28.316-28.526h-14.593v-30.125h14.593c32.225 0 58.441 26.31 58.441 58.651z" fill="#ca7a33"/></g></g><g><g><path d="m130.703 350.253h-60.089c-38.937 0-70.614 31.677-70.614 70.614l17.609 7.384 223.543-6.127z" fill="#89ce6d"/><path d="m241.152 420.867h-241.152c0 38.937 31.677 70.614 70.614 70.614h53.89z" fill="#5eb16a"/></g><g><path d="m294.967 350.253h-164.264c-38.937 0-70.614 31.677-70.614 70.614l17.609 7.384 223.543-6.127z" fill="#5eb16a"/><path d="m301.241 420.867h-241.152c0 38.937 31.677 70.614 70.614 70.614h154.46z" fill="#009b5c"/></g><g><path d="m512 380.321-25.071-14.239h-186.252c-29.413 0-53.258 23.844-53.258 53.258 0 .512.024 1.019.039 1.527l104.744 25.865 118.374-25.865c.025-22.361 18.597-40.546 41.424-40.546z" fill="#f7fcff"/><path d="m470.575 420.912c0-.015.001-.03.001-.044h-223.118c.811 28.705 24.318 51.73 53.219 51.73h193.848l17.475-11.14c-22.842 0-41.425-18.165-41.425-40.546z" fill="#ecf3fb"/></g><g><path d="m290.628 380.321h221.372v-30.068h-221.372c-38.937 0-70.614 31.677-70.614 70.614l17.609 7.384 12.459-7.384c0-22.357 18.188-40.546 40.546-40.546z" fill="#89ce6d"/><path d="m250.082 420.867h-30.068c0 38.937 31.677 70.614 70.614 70.614h221.372v-30.023l-221.372-.044c-22.358 0-40.546-18.189-40.546-40.547z" fill="#5eb16a"/><path d="m473.658 405.567h-182.864v15.3l88.916 6.098 90.866-6.098c.006-5.412 1.106-10.576 3.082-15.3z" fill="#ecf3fb"/><path d="m473.408 435.635c-1.822-4.568-2.833-9.531-2.833-14.723 0-.015.001-.03.001-.044h-179.782v14.768h182.614z" fill="#e0e6f5"/></g></g></g><g><path d="m260.532 99.987c-9.543-.336-19.045-1.854-28.245-4.515-14.384-4.158-28.83-4.693-42.934-1.588-22.977 5.057-43.24 19.825-57.058 41.583-18.814 29.626-24.529 69.047-15.678 108.155 7.552 33.369 24.834 62.637 48.662 82.415 24.834 20.612 53.791 28.601 81.537 22.492 5.358-1.178 12.596-3.983 17.791-6.16.15.063.316.13.469.194l17.67-119.524-17.67-123.531z" fill="#fd465f"/></g><path d="m409.85 214.409c-24.099 0-43.635-19.536-43.635-43.635 0-18.565 11.6-34.412 27.942-40.716l-5.064-5.91c-13.423-15.665-30.446-26.131-49.231-30.266-2.751-.605-5.564-1.078-8.361-1.405l-58.393 7.028-8.031 25.641v217.414c5.156 2.147 12.118 4.822 17.32 5.966 6.607 1.455 13.247 2.169 19.79 2.169 16.695-.001 32.738-4.658 45.848-13.578 22.011-14.976 51.057-43.26 64.431-92.965 1.943-7.218 3.351-14.611 4.186-21.978l.96-8.468c-2.519.454-5.11.703-7.762.703z" fill="#ce0c51"/><g><path d="m309.283 125.147h-44.205v-26.047c0-25.67 20.884-46.554 46.554-46.554h44.205v26.046c0 25.671-20.884 46.555-46.554 46.555z" fill="#5eb16a"/></g></g></svg>